<svg width="130" height="130" viewBox="0 0 130 130" fill="none" xmlns="http://www.w3.org/2000/svg">
<g id="Google vec">
<path d="M130 66.4625C130 62.1833 129.613 58.1208 128.948 54.1667H66.4112V78.5958H102.218C100.613 86.6125 95.9089 93.3833 88.9357 97.9875V114.238H110.298C122.805 102.917 130 86.2333 130 66.4625Z" fill="#4285F4"/>
<path d="M66.4112 130C84.3423 130 99.3401 124.15 110.298 114.238L88.9357 97.9875C82.9587 101.887 75.3768 104.271 66.4112 104.271C49.089 104.271 34.4232 92.8417 29.1656 77.4042H7.1392V94.1417C18.0417 115.375 40.4555 130 66.4112 130Z" fill="#34A853"/>
<path d="M29.1656 77.4042C27.782 73.5042 27.0626 69.3333 27.0626 65C27.0626 60.6667 27.8374 56.4959 29.1656 52.5959V35.8583H7.1392C2.6011 44.6334 0 54.4917 0 65C0 75.5083 2.6011 85.3667 7.1392 94.1417L29.1656 77.4042Z" fill="#FBBC05"/>
<path d="M66.4112 25.7292C76.2069 25.7292 84.951 29.0333 91.8689 35.4792L110.796 16.9542C99.3401 6.44584 84.3423 0 66.4112 0C40.4555 0 18.0417 14.625 7.1392 35.8583L29.1656 52.5959C34.4232 37.1584 49.089 25.7292 66.4112 25.7292Z" fill="#EA4335"/>
</g>
</svg>
