<svg width="61" height="61" viewBox="0 0 61 61" fill="none" xmlns="http://www.w3.org/2000/svg">
<g id="Group">
<path id="Vector" d="M30.5012 38.2728C34.794 38.2728 38.274 34.7929 38.274 30.5001C38.274 26.2073 34.794 22.7274 30.5012 22.7274C26.2085 22.7274 22.7285 26.2073 22.7285 30.5001C22.7285 34.7929 26.2085 38.2728 30.5012 38.2728Z" stroke="#188D07" stroke-width="3" stroke-linecap="round" stroke-linejoin="round"/>
<path id="Vector_2" fill-rule="evenodd" clip-rule="evenodd" d="M49.6727 38.2727C49.3278 39.0542 49.225 39.921 49.3774 40.7615C49.5297 41.602 49.9304 42.3776 50.5277 42.9882L50.6832 43.1436C51.6555 44.116 52.2017 45.4347 52.2017 46.8098C52.2017 48.1848 51.6555 49.5036 50.6832 50.4759C49.7109 51.4482 48.3921 51.9945 47.017 51.9945C45.642 51.9945 44.3232 51.4482 43.3509 50.4759L43.1955 50.3205C42.5848 49.7232 41.8093 49.3225 40.9688 49.1701C40.1283 49.0177 39.2615 49.1206 38.48 49.4655C37.7137 49.7939 37.0601 50.3392 36.5998 51.0343C36.1395 51.7295 35.8924 52.544 35.8891 53.3777V53.8182C35.8891 55.1925 35.3431 56.5105 34.3714 57.4823C33.3996 58.4541 32.0816 59 30.7073 59C29.333 59 28.015 58.4541 27.0432 57.4823C26.0714 56.5105 25.5255 55.1925 25.5255 53.8182V53.585C25.5054 52.7274 25.2278 51.8957 24.7288 51.198C24.2297 50.5003 23.5324 49.9688 22.7273 49.6727C21.9458 49.3278 21.079 49.225 20.2385 49.3774C19.398 49.5297 18.6224 49.9304 18.0118 50.5277L17.8564 50.6832C16.884 51.6555 15.5653 52.2017 14.1902 52.2017C12.8152 52.2017 11.4964 51.6555 10.5241 50.6832C9.55177 49.7109 9.00553 48.3921 9.00553 47.017C9.00553 45.642 9.55177 44.3232 10.5241 43.3509L10.6795 43.1955C11.2768 42.5848 11.6775 41.8093 11.8299 40.9688C11.9823 40.1283 11.8794 39.2615 11.5345 38.48C11.2061 37.7137 10.6608 37.0601 9.96566 36.5998C9.27054 36.1395 8.45599 35.8924 7.62227 35.8891H7.18182C5.80751 35.8891 4.4895 35.3431 3.51772 34.3714C2.54594 33.3996 2 32.0816 2 30.7073C2 29.333 2.54594 28.015 3.51772 27.0432C4.4895 26.0714 5.80751 25.5255 7.18182 25.5255H7.415C8.27258 25.5054 9.10428 25.2278 9.802 24.7288C10.4997 24.2297 11.0312 23.5324 11.3273 22.7273C11.6722 21.9458 11.775 21.079 11.6226 20.2385C11.4703 19.398 11.0696 18.6224 10.4723 18.0118L10.3168 17.8564C9.3445 16.884 8.79825 15.5653 8.79825 14.1902C8.79825 12.8152 9.3445 11.4964 10.3168 10.5241C11.2891 9.55177 12.6079 9.00553 13.983 9.00553C15.358 9.00553 16.6768 9.55177 17.6491 10.5241L17.8045 10.6795C18.4152 11.2768 19.1907 11.6775 20.0312 11.8299C20.8717 11.9823 21.7385 11.8794 22.52 11.5345H22.7273C23.4936 11.2061 24.1471 10.6608 24.6075 9.96566C25.0678 9.27054 25.3149 8.45599 25.3182 7.62227V7.18182C25.3182 5.80751 25.8641 4.4895 26.8359 3.51772C27.8077 2.54594 29.1257 2 30.5 2C31.8743 2 33.1923 2.54594 34.1641 3.51772C35.1359 4.4895 35.6818 5.80751 35.6818 7.18182V7.415C35.6851 8.24872 35.9322 9.06327 36.3925 9.75839C36.8529 10.4535 37.5064 10.9988 38.2727 11.3273C39.0542 11.6722 39.921 11.775 40.7615 11.6226C41.602 11.4703 42.3776 11.0696 42.9882 10.4723L43.1436 10.3168C44.116 9.3445 45.4347 8.79825 46.8098 8.79825C48.1848 8.79825 49.5036 9.3445 50.4759 10.3168C51.4482 11.2891 51.9945 12.6079 51.9945 13.983C51.9945 15.358 51.4482 16.6768 50.4759 17.6491L50.3205 17.8045C49.7232 18.4152 49.3225 19.1907 49.1701 20.0312C49.0177 20.8717 49.1206 21.7385 49.4655 22.52V22.7273C50.1391 24.2922 51.6729 25.3104 53.3777 25.3182H53.8182C55.1925 25.3182 56.5105 25.8641 57.4823 26.8359C58.4541 27.8077 59 29.1257 59 30.5C59 31.8743 58.4541 33.1923 57.4823 34.1641C56.5105 35.1359 55.1925 35.6818 53.8182 35.6818H53.585C52.7513 35.6851 51.9367 35.9322 51.2416 36.3925C50.5465 36.8529 50.0012 37.5064 49.6727 38.2727Z" stroke="#188D07" stroke-width="3" stroke-linecap="round" stroke-linejoin="round"/>
</g>
</svg>
